<?xml version="1.0" encoding="iso-8859-1"?>
<!-- Generator: Adobe Illustrator 19.0.0, SVG Export Plug-In . SVG Version: 6.00 Build 0)  -->
<svg version="1.1" id="Layer_1" xmlns="http://www.w3.org/2000/svg" xmlns:xlink="http://www.w3.org/1999/xlink" x="0px" y="0px"
	 viewBox="0 0 512.02 512.02" style="enable-background:new 0 0 512.02 512.02;" xml:space="preserve">
<path style="fill:#3BAFDA;" d="M508.903,362.251l-81.782-81.774c-1.938-1.93-4.594-3.125-7.562-3.125
	c-2.938,0-5.594,1.195-7.531,3.117l0,0l-74.25,74.243l-74.219-74.235c-1.938-1.93-4.595-3.125-7.532-3.125
	c-2.969,0-5.625,1.195-7.562,3.125l0,0l-74.22,74.235l-74.25-74.235c-1.938-1.93-4.594-3.125-7.531-3.125
	c-2.969,0-5.625,1.195-7.562,3.125l0,0L3.117,362.251c-4.156,4.172-4.156,10.922,0,15.086c4.188,4.164,10.938,4.164,15.094,0
	l74.251-74.235l74.219,74.235c4.188,4.164,10.938,4.164,15.094,0l74.251-74.235l74.22,74.235c4.156,4.164,10.938,4.156,15.094-0.008
	l74.219-74.228l74.251,74.235c4.156,4.164,10.906,4.164,15.094,0C513.059,373.173,513.059,366.415,508.903,362.251z"/>
<path style="fill:#4FC1E9;" d="M18.211,231.554l74.251-74.235l74.219,74.235c4.188,4.164,10.938,4.164,15.094,0l74.22-74.235
	l74.251,74.235c4.156,4.164,10.938,4.156,15.094-0.008l74.219-74.235l74.251,74.235c4.156,4.172,10.906,4.172,15.062,0
	c4.188-4.164,4.188-10.915,0-15.079l-81.751-81.781c-1.938-1.93-4.594-3.125-7.562-3.125c-2.938,0-5.594,1.195-7.531,3.125l0,0
	l-74.25,74.234l-74.219-74.234c-1.938-1.93-4.595-3.125-7.532-3.125c-2.969,0-5.625,1.195-7.562,3.125l0,0l-74.22,74.234
	l-74.25-74.234c-1.938-1.93-4.594-3.125-7.531-3.125c-2.969,0-5.625,1.195-7.562,3.125l0,0L3.117,216.468
	c-4.156,4.164-4.156,10.922,0,15.086C7.305,235.719,14.055,235.719,18.211,231.554z"/>
<g>
</g>
<g>
</g>
<g>
</g>
<g>
</g>
<g>
</g>
<g>
</g>
<g>
</g>
<g>
</g>
<g>
</g>
<g>
</g>
<g>
</g>
<g>
</g>
<g>
</g>
<g>
</g>
<g>
</g>
</svg>
